<mxfile host="app.diagrams.net" modified="2020-08-23T03:04:46.452Z" agent="5.0 (Macintosh; Intel Mac OS X 10_15_3) AppleWebKit/537.36 (KHTML, like Gecko) Chrome/84.0.4147.125 Safari/537.36" etag="DluSvWxHtsgfcYdO45bG" version="13.6.2" type="github">
  <diagram id="prtHgNgQTEPvFCAcTncT" name="Page-1">
    <mxGraphModel dx="818" dy="548" grid="1" gridSize="10" guides="1" tooltips="1" connect="1" arrows="1" fold="1" page="1" pageScale="1" pageWidth="1169" pageHeight="827" math="0" shadow="0">
      <root>
        <mxCell id="0" />
        <mxCell id="1" parent="0" />
        <mxCell id="dNxyNK7c78bLwvsdeMH5-22" value="診断単位各部門" style="swimlane;html=1;startSize=20;horizontal=0;" parent="1" vertex="1">
          <mxGeometry x="80" y="440" width="1020" height="160" as="geometry" />
        </mxCell>
        <mxCell id="dNxyNK7c78bLwvsdeMH5-21" value="検討各部門" style="swimlane;html=1;startSize=20;horizontal=0;" parent="1" vertex="1">
          <mxGeometry x="80" y="280" width="1020" height="160" as="geometry">
            <mxRectangle x="20" y="120" width="430" height="20" as="alternateBounds" />
          </mxGeometry>
        </mxCell>
        <mxCell id="fLh4m_JT4PHfjXe0jONh-2" value="" style="shape=mxgraph.bpmn.shape;html=1;verticalLabelPosition=bottom;labelBackgroundColor=#ffffff;verticalAlign=top;align=center;perimeter=ellipsePerimeter;outlineConnect=0;outline=standard;symbol=message;fillColor=#FFFFFF;" vertex="1" parent="dNxyNK7c78bLwvsdeMH5-21">
          <mxGeometry x="257" y="-37" width="40" height="36" as="geometry" />
        </mxCell>
        <mxCell id="fLh4m_JT4PHfjXe0jONh-4" value="" style="edgeStyle=orthogonalEdgeStyle;rounded=0;orthogonalLoop=1;jettySize=auto;html=1;exitX=0.5;exitY=1;exitDx=0;exitDy=0;entryX=0.25;entryY=0;entryDx=0;entryDy=0;" edge="1" parent="dNxyNK7c78bLwvsdeMH5-21" source="fLh4m_JT4PHfjXe0jONh-2" target="fLh4m_JT4PHfjXe0jONh-17">
          <mxGeometry relative="1" as="geometry">
            <mxPoint x="270" y="20" as="targetPoint" />
            <mxPoint x="265" y="-60" as="sourcePoint" />
          </mxGeometry>
        </mxCell>
        <mxCell id="fLh4m_JT4PHfjXe0jONh-5" value="" style="startArrow=diamondThin;startFill=0;startSize=14;endArrow=block;endFill=1;endSize=6;html=1;entryX=0;entryY=0.75;entryDx=0;entryDy=0;exitX=0.25;exitY=1;exitDx=0;exitDy=0;" edge="1" parent="dNxyNK7c78bLwvsdeMH5-21" source="fLh4m_JT4PHfjXe0jONh-17" target="fLh4m_JT4PHfjXe0jONh-17">
          <mxGeometry width="100" relative="1" as="geometry">
            <mxPoint x="270" y="134" as="sourcePoint" />
            <mxPoint x="215" y="94" as="targetPoint" />
            <Array as="points">
              <mxPoint x="277" y="140" />
              <mxPoint x="220" y="140" />
              <mxPoint x="220" y="90" />
            </Array>
          </mxGeometry>
        </mxCell>
        <mxCell id="fLh4m_JT4PHfjXe0jONh-17" value="内容案決定" style="shape=ext;rounded=1;html=1;whiteSpace=wrap;fillColor=#FFFFFF;" vertex="1" parent="dNxyNK7c78bLwvsdeMH5-21">
          <mxGeometry x="247" y="30" width="120" height="80" as="geometry" />
        </mxCell>
        <mxCell id="dNxyNK7c78bLwvsdeMH5-20" value="監査部" style="swimlane;html=1;startSize=20;horizontal=0;" parent="1" vertex="1">
          <mxGeometry x="80" y="120" width="1020" height="160" as="geometry" />
        </mxCell>
        <mxCell id="fLh4m_JT4PHfjXe0jONh-11" value="全社チェックシート&lt;br&gt;追加変更削除検討" style="shape=ext;rounded=1;html=1;whiteSpace=wrap;fillColor=#FFFFFF;" vertex="1" parent="dNxyNK7c78bLwvsdeMH5-20">
          <mxGeometry x="100" y="30" width="120" height="80" as="geometry" />
        </mxCell>
        <mxCell id="dNxyNK7c78bLwvsdeMH5-25" value="" style="edgeStyle=orthogonalEdgeStyle;rounded=0;orthogonalLoop=1;jettySize=auto;html=1;entryX=0;entryY=0.5;entryDx=0;entryDy=0;" parent="dNxyNK7c78bLwvsdeMH5-20" source="dNxyNK7c78bLwvsdeMH5-23" target="fLh4m_JT4PHfjXe0jONh-11" edge="1">
          <mxGeometry relative="1" as="geometry">
            <mxPoint x="100" y="60" as="targetPoint" />
          </mxGeometry>
        </mxCell>
        <mxCell id="dNxyNK7c78bLwvsdeMH5-23" value="" style="ellipse;whiteSpace=wrap;html=1;" parent="dNxyNK7c78bLwvsdeMH5-20" vertex="1">
          <mxGeometry x="40" y="50" width="40" height="40" as="geometry" />
        </mxCell>
        <mxCell id="z0tVsyZwGD2qj3RXa2De-7" value="" style="endArrow=classic;html=1;exitX=1;exitY=0.5;exitDx=0;exitDy=0;entryX=0;entryY=0.5;entryDx=0;entryDy=0;" parent="dNxyNK7c78bLwvsdeMH5-20" source="fLh4m_JT4PHfjXe0jONh-11" target="fLh4m_JT4PHfjXe0jONh-15" edge="1">
          <mxGeometry width="50" height="50" relative="1" as="geometry">
            <mxPoint x="180" y="60" as="sourcePoint" />
            <mxPoint x="230" y="20" as="targetPoint" />
          </mxGeometry>
        </mxCell>
        <mxCell id="fLh4m_JT4PHfjXe0jONh-12" value="内容決定" style="shape=ext;rounded=1;html=1;whiteSpace=wrap;fillColor=#FFFFFF;" vertex="1" parent="dNxyNK7c78bLwvsdeMH5-20">
          <mxGeometry x="609" y="30" width="120" height="80" as="geometry" />
        </mxCell>
        <mxCell id="fLh4m_JT4PHfjXe0jONh-13" value="結果確認&lt;br&gt;内容決定" style="shape=ext;rounded=1;html=1;whiteSpace=wrap;fillColor=#FFFFFF;" vertex="1" parent="dNxyNK7c78bLwvsdeMH5-20">
          <mxGeometry x="440" y="30" width="120" height="80" as="geometry" />
        </mxCell>
        <mxCell id="fLh4m_JT4PHfjXe0jONh-15" value="検討依頼先決定&lt;br&gt;依頼" style="shape=ext;rounded=1;html=1;whiteSpace=wrap;fillColor=#FFFFFF;" vertex="1" parent="dNxyNK7c78bLwvsdeMH5-20">
          <mxGeometry x="247" y="30" width="120" height="80" as="geometry" />
        </mxCell>
        <mxCell id="fLh4m_JT4PHfjXe0jONh-3" value="" style="edgeStyle=orthogonalEdgeStyle;rounded=0;orthogonalLoop=1;jettySize=auto;html=1;entryX=0.5;entryY=0;entryDx=0;entryDy=0;exitX=0.25;exitY=1;exitDx=0;exitDy=0;" edge="1" parent="1" source="fLh4m_JT4PHfjXe0jONh-15" target="fLh4m_JT4PHfjXe0jONh-2">
          <mxGeometry relative="1" as="geometry">
            <mxPoint x="340" y="220" as="targetPoint" />
            <mxPoint x="335" y="210" as="sourcePoint" />
          </mxGeometry>
        </mxCell>
        <mxCell id="dNxyNK7c78bLwvsdeMH5-19" value="N期自己診断" style="swimlane;html=1;childLayout=stackLayout;resizeParent=1;resizeParentMax=0;horizontal=0;startSize=20;horizontalStack=0;" parent="1" vertex="1">
          <mxGeometry x="60" y="120" width="1040" height="480" as="geometry" />
        </mxCell>
        <mxCell id="fLh4m_JT4PHfjXe0jONh-6" value="" style="startArrow=dash;startSize=8;endArrow=block;endFill=1;endSize=6;html=1;exitX=1;exitY=0.5;exitDx=0;exitDy=0;entryX=0.5;entryY=1;entryDx=0;entryDy=0;" edge="1" parent="1" source="fLh4m_JT4PHfjXe0jONh-17" target="fLh4m_JT4PHfjXe0jONh-13">
          <mxGeometry width="100" relative="1" as="geometry">
            <mxPoint x="489" y="350" as="sourcePoint" />
            <mxPoint x="522" y="210" as="targetPoint" />
            <Array as="points">
              <mxPoint x="580" y="350" />
            </Array>
          </mxGeometry>
        </mxCell>
        <mxCell id="fLh4m_JT4PHfjXe0jONh-20" value="" style="startArrow=diamondThin;startFill=0;startSize=14;endArrow=block;endFill=1;endSize=6;html=1;entryX=1;entryY=0.25;entryDx=0;entryDy=0;exitX=0;exitY=0.75;exitDx=0;exitDy=0;" edge="1" parent="1" source="fLh4m_JT4PHfjXe0jONh-13" target="fLh4m_JT4PHfjXe0jONh-17">
          <mxGeometry width="100" relative="1" as="geometry">
            <mxPoint x="517" y="290" as="sourcePoint" />
            <mxPoint x="487" y="270" as="targetPoint" />
            <Array as="points">
              <mxPoint x="480" y="210" />
              <mxPoint x="480" y="330" />
            </Array>
          </mxGeometry>
        </mxCell>
      </root>
    </mxGraphModel>
  </diagram>
</mxfile>
